<?xml version="1.0" encoding="UTF-8"?>
<svg width="127px" height="127px" viewBox="0 0 127 127" version="1.1" xmlns="http://www.w3.org/2000/svg" xmlns:xlink="http://www.w3.org/1999/xlink">
    <!-- Generator: Sketch 43.1 (39012) - http://www.bohemiancoding.com/sketch -->
    <title>github</title>
    <desc>Created with Sketch.</desc>
    <defs>
        <rect id="path-1" x="45" y="89" width="34" height="34" rx="8"></rect>
    </defs>
    <g id="Page-1" stroke="none" stroke-width="1" fill="none" fill-rule="evenodd">
        <g id="Artboard-3" transform="translate(-36.000000, -68.000000)">
            <g id="github" transform="translate(38.000000, 70.000000)">
                <circle id="Oval-2" stroke="#000000" stroke-width="3" cx="61.5" cy="61.5" r="61.5"></circle>
                <g id="Head" stroke-width="1" fill-rule="evenodd" transform="translate(17.000000, 37.000000)" stroke="#000000" fill="#000000">
                    <path d="M44.3319871,48.1958592 C62.3740324,48.1958592 77,43.3360853 77,25.29404 C77,7.2519947 44.3319871,9.04963169 44.3319871,9.04963169 C44.3319871,9.04963169 11.6639743,7.2519947 11.6639743,25.29404 C11.6639743,43.3360853 26.2899418,48.1958592 44.3319871,48.1958592 Z" id="Oval"></path>
                    <polygon id="Triangle" transform="translate(77.334524, 11.334524) scale(-1, 1) rotate(-45.000000) translate(-77.334524, -11.334524) " points="77.3345238 3.31980515 85.3492424 19.3492424 69.3198052 19.3492424"></polygon>
                    <polygon id="Triangle" transform="translate(11.334524, 11.334524) rotate(-45.000000) translate(-11.334524, -11.334524) " points="11.3345238 3.31980515 19.3492424 19.3492424 3.31980515 19.3492424"></polygon>
                </g>
                <g id="Rectangle-2">
                    <use fill="#000000" fill-rule="evenodd" xlink:href="#path-1"></use>
                    <rect stroke="#000000" stroke-width="1" x="45.5" y="89.5" width="33" height="33" rx="8"></rect>
                </g>
                <text id="x" font-family="AmericanTypewriter, American Typewriter" font-size="25" font-weight="normal" fill="#FFFFFF">
                    <tspan x="54" y="70">x</tspan>
                </text>
            </g>
        </g>
    </g>
</svg>